<svg x="0px" y="0px"
	 viewBox="0 0 500 500" style="enable-background:new 0 0 500 500;" xml:space="preserve">
<style type="text/css">
	.st0{fill:currentColor;}
</style>
<g>
	<path class="st0" d="M226.3,85c25.7-3.3,51.5-6.6,78.9-10.1c0,4.9,0,8.7,0,12.5c0,94.1,0.1,188.3-0.1,282.4c0,15,1.6,28.7,18.7,38
		c-32.6,0-62.4,0-94.7,0c18.8-10.7,18.5-27.2,18.5-43.9c-0.1-79.5-0.2-159,0-238.5c0-17-5.1-30.4-21.6-37.9
		C226.1,86.6,226.2,85.8,226.3,85z"/>
	<path class="st0" d="M215.2,406.8c-16.1,6.8-32,8.4-48.1,5.1c-17.9-3.7-26-13.9-26-32.1c-0.1-38.1,0.3-76.1-0.3-114.2
		c-0.2-10.5-1-21.7-4.9-31.3c-4-9.9-12-18.1-17.7-26.3c35.9-6.4,74.7,21.1,77.6,59.1c2.2,28.2,1.3,56.6,1.8,84.9
		c0.1,7.6-0.1,15.2,0.1,22.8C197.9,388.3,198.8,401.5,215.2,406.8z"/>
	<path class="st0" d="M491.1,408.4c-28.4,0-56.7,0.2-85.1-0.3c-3.1-0.1-7.3-3.4-9.1-6.3c-21.1-34.3-41.9-68.8-62.4-103.5
		c-1.7-2.9-1.8-9.3,0.1-11.3c12.9-12.7,26.5-24.5,40.7-37.3c0.4,0.6,2.6,3.3,4.4,6.3c17.7,29,35.6,58,53,87.2
		c15.1,25.3,30.4,50.2,59.3,62.7C491.7,406.7,491.4,407.5,491.1,408.4z"/>
	<path class="st0" d="M96.1,301.5c-1.8,1.5-2.4,2.2-3.1,2.6c-29.6,15.1-40.7,43.3-29.7,75.1c5.9,16.9,16.1,24.4,34.1,24.7c1.4,0,2.8,0.2,4.7,2.2
		c-4,1.4-8,3.8-12.2,4.2c-16,1.3-32.3,4-48.1,2.3c-31.7-3.6-47.5-32.2-36.4-63.1c4.6-12.8,12.7-22.9,23.9-30.3
		C44.2,309.2,76.5,300.6,96.1,301.5z"/>
	<path class="st0" d="M62,215.9c15.7,0,28.7,12.7,28.7,28.1c0,15.3-13.2,27.9-29,27.8c-15.5-0.1-27.9-12.3-28-27.6
		C33.6,228.3,46,215.9,62,215.9z"/>
	<path class="st0" d="M385.3,173.4c27.3,0,54.6,0,79.6,0c-18.2,9.9-38.1,20.7-58.2,31.6C412.3,187.6,400.4,179.8,385.3,173.4z"/>
</g>
</svg>